# xmcd CD database file
# Copyright (C) 1993-1999 CDDB, Inc.
#
# Track frame offsets:
#	150
#	558
#	27223
#	72776
#	88962
#	122377
#	155414
#	197108
#	209463
#	224747
#	256621
#	274132
#	285426
#	298940
#
# Disc length: 4148
#
# Revision: 1
# Processed by: cddbd v1.5.1PL0 Copyright (c) Steve Scherf et al.
# Submitted via: CoolCD_Studio 1.4
#
DISCID=d010320e
DTITLE=Rory Gallagher - Live with Taste
DYEAR=1900
DGENRE=
TTITLE0=Introduction
TTITLE1=Movin' on_Pontiac blues
TTITLE2=Baby please don't go
TTITLE3=Blister on the moon
TTITLE4=Sugar Mama
TTITLE5=First time I met the blues
TTITLE6=Catfish
TTITLE7=Wee wee Baby
TTITLE8=How many more yeras
TTITLE9=Take it easy Baby
TTITLE10=You've got to pay
TTITLE11=Worried man
TTITLE12=Norman invasion
TTITLE13=Pardon me Mister
EXTD=
EXTT0=
EXTT1=
EXTT2=
EXTT3=
EXTT4=
EXTT5=
EXTT6=
EXTT7=
EXTT8=
EXTT9=
EXTT10=
EXTT11=
EXTT12=
EXTT13=
PLAYORDER=
